<svg xmlns="http://www.w3.org/2000/svg" xmlns:xlink="http://www.w3.org/1999/xlink" width="300" zoomAndPan="magnify" viewBox="0 0 224.87999 74.999997" height="100" preserveAspectRatio="xMidYMid meet" version="1.0"><defs><g/><clipPath id="4945c45bae"><path d="M 7.496094 15 L 13 15 L 13 21 L 7.496094 21 Z M 7.496094 15 " clip-rule="nonzero"/></clipPath><clipPath id="05ad414380"><path d="M 7.496094 19 L 9 19 L 9 21 L 7.496094 21 Z M 7.496094 19 " clip-rule="nonzero"/></clipPath><clipPath id="1624f1b0dd"><path d="M 7.496094 15 L 9 15 L 9 17 L 7.496094 17 Z M 7.496094 15 " clip-rule="nonzero"/></clipPath><clipPath id="99b394cefe"><path d="M 11 10.925781 L 13 10.925781 L 13 12 L 11 12 Z M 11 10.925781 " clip-rule="nonzero"/></clipPath><clipPath id="08d1779a83"><path d="M 63 22 L 68.214844 22 L 68.214844 27 L 63 27 Z M 63 22 " clip-rule="nonzero"/></clipPath><clipPath id="1105b0f689"><path d="M 67 22 L 68.214844 22 L 68.214844 24 L 67 24 Z M 67 22 " clip-rule="nonzero"/></clipPath><clipPath id="aec5af0d48"><path d="M 67 25 L 68.214844 25 L 68.214844 27 L 67 27 Z M 67 25 " clip-rule="nonzero"/></clipPath><clipPath id="6d32cb9061"><path d="M 11 39 L 54 39 L 54 64.148438 L 11 64.148438 Z M 11 39 " clip-rule="nonzero"/></clipPath><clipPath id="8dbeab53ec"><path d="M 52 39 L 65 39 L 65 64.148438 L 52 64.148438 Z M 52 39 " clip-rule="nonzero"/></clipPath></defs><g clip-path="url(#4945c45bae)"><path fill="#1a1819" d="M 10.742188 17.246094 L 12.816406 17.808594 L 10.742188 18.367188 L 10.179688 20.4375 L 9.617188 18.367188 L 7.546875 17.808594 L 9.617188 17.246094 L 10.179688 15.175781 L 10.742188 17.246094 " fill-opacity="1" fill-rule="nonzero"/></g><g clip-path="url(#05ad414380)"><path fill="#1a1819" d="M 8.929688 19.054688 C 8.910156 19.230469 8.855469 19.367188 8.785156 19.496094 C 8.714844 19.625 8.628906 19.734375 8.53125 19.832031 C 8.433594 19.929688 8.320312 20.015625 8.195312 20.085938 C 8.066406 20.152344 7.929688 20.214844 7.75 20.230469 C 7.769531 20.054688 7.828125 19.917969 7.894531 19.789062 C 7.964844 19.664062 8.050781 19.550781 8.152344 19.453125 C 8.25 19.355469 8.359375 19.269531 8.488281 19.199219 C 8.617188 19.132812 8.753906 19.074219 8.929688 19.054688 " fill-opacity="1" fill-rule="nonzero"/></g><path fill="#1a1819" d="M 12.609375 15.378906 C 12.589844 15.558594 12.53125 15.695312 12.464844 15.824219 C 12.394531 15.949219 12.308594 16.0625 12.210938 16.160156 C 12.113281 16.257812 12 16.34375 11.875 16.414062 C 11.746094 16.484375 11.605469 16.542969 11.429688 16.558594 C 11.449219 16.382812 11.507812 16.242188 11.574219 16.113281 C 11.644531 15.988281 11.730469 15.878906 11.828125 15.78125 C 11.929688 15.679688 12.039062 15.597656 12.167969 15.527344 C 12.296875 15.457031 12.433594 15.398438 12.609375 15.378906 " fill-opacity="1" fill-rule="nonzero"/><path fill="#1a1819" d="M 11.429688 19.054688 C 11.605469 19.074219 11.746094 19.132812 11.875 19.199219 C 12 19.269531 12.113281 19.355469 12.210938 19.453125 C 12.308594 19.550781 12.394531 19.664062 12.464844 19.789062 C 12.535156 19.917969 12.59375 20.054688 12.609375 20.230469 C 12.433594 20.214844 12.292969 20.152344 12.167969 20.085938 C 12.039062 20.015625 11.929688 19.929688 11.828125 19.832031 C 11.730469 19.734375 11.644531 19.625 11.574219 19.496094 C 11.507812 19.367188 11.449219 19.230469 11.429688 19.054688 " fill-opacity="1" fill-rule="nonzero"/><g clip-path="url(#1624f1b0dd)"><path fill="#1a1819" d="M 7.75 15.378906 C 7.925781 15.398438 8.066406 15.457031 8.195312 15.527344 C 8.320312 15.597656 8.433594 15.679688 8.53125 15.78125 C 8.628906 15.878906 8.714844 15.988281 8.785156 16.113281 C 8.855469 16.242188 8.914062 16.382812 8.929688 16.558594 C 8.753906 16.542969 8.613281 16.484375 8.488281 16.414062 C 8.359375 16.34375 8.25 16.257812 8.152344 16.160156 C 8.050781 16.0625 7.964844 15.949219 7.894531 15.824219 C 7.828125 15.695312 7.769531 15.558594 7.75 15.378906 " fill-opacity="1" fill-rule="nonzero"/></g><g clip-path="url(#99b394cefe)"><path fill="#1a1819" d="M 12.324219 11.429688 C 12.324219 11.699219 12.101562 11.921875 11.828125 11.921875 C 11.554688 11.921875 11.335938 11.699219 11.335938 11.429688 C 11.335938 11.15625 11.554688 10.933594 11.828125 10.933594 C 12.101562 10.933594 12.324219 11.15625 12.324219 11.429688 " fill-opacity="1" fill-rule="nonzero"/></g><path fill="#1a1819" d="M 15.535156 15.074219 C 15.535156 15.347656 15.316406 15.566406 15.042969 15.566406 C 14.773438 15.566406 14.546875 15.347656 14.546875 15.074219 C 14.546875 14.800781 14.773438 14.582031 15.042969 14.582031 C 15.316406 14.582031 15.535156 14.800781 15.535156 15.074219 " fill-opacity="1" fill-rule="nonzero"/><path fill="#1a1819" d="M 10.179688 23.070312 C 10.179688 23.34375 9.960938 23.566406 9.6875 23.566406 C 9.414062 23.566406 9.191406 23.34375 9.191406 23.070312 C 9.191406 22.796875 9.414062 22.578125 9.6875 22.578125 C 9.960938 22.578125 10.179688 22.796875 10.179688 23.070312 " fill-opacity="1" fill-rule="nonzero"/><path fill="#1a1819" d="M 63.960938 14.058594 L 66.03125 14.621094 L 63.960938 15.179688 L 63.398438 17.25 L 62.835938 15.179688 L 60.761719 14.621094 L 62.835938 14.058594 L 63.398438 11.992188 L 63.960938 14.058594 " fill-opacity="1" fill-rule="nonzero"/><path fill="#1a1819" d="M 62.148438 15.867188 C 62.128906 16.042969 62.070312 16.183594 62.003906 16.308594 C 61.929688 16.4375 61.847656 16.550781 61.75 16.648438 C 61.652344 16.746094 61.539062 16.832031 61.410156 16.902344 C 61.285156 16.96875 61.144531 17.027344 60.96875 17.046875 C 60.984375 16.867188 61.046875 16.730469 61.113281 16.601562 C 61.183594 16.476562 61.269531 16.367188 61.367188 16.265625 C 61.464844 16.167969 61.578125 16.082031 61.703125 16.011719 C 61.832031 15.945312 61.96875 15.886719 62.148438 15.867188 " fill-opacity="1" fill-rule="nonzero"/><path fill="#1a1819" d="M 65.828125 12.195312 C 65.808594 12.371094 65.75 12.507812 65.683594 12.636719 C 65.613281 12.765625 65.527344 12.875 65.425781 12.972656 C 65.332031 13.070312 65.21875 13.15625 65.089844 13.226562 C 64.960938 13.296875 64.824219 13.355469 64.648438 13.375 C 64.667969 13.195312 64.722656 13.058594 64.792969 12.929688 C 64.863281 12.804688 64.949219 12.691406 65.046875 12.59375 C 65.144531 12.496094 65.257812 12.410156 65.382812 12.339844 C 65.511719 12.273438 65.652344 12.214844 65.828125 12.195312 " fill-opacity="1" fill-rule="nonzero"/><path fill="#1a1819" d="M 64.648438 15.867188 C 64.824219 15.886719 64.960938 15.945312 65.089844 16.011719 C 65.21875 16.082031 65.328125 16.167969 65.425781 16.265625 C 65.527344 16.367188 65.613281 16.476562 65.683594 16.601562 C 65.75 16.730469 65.808594 16.867188 65.828125 17.046875 C 65.652344 17.027344 65.511719 16.96875 65.382812 16.902344 C 65.257812 16.832031 65.144531 16.746094 65.046875 16.648438 C 64.949219 16.550781 64.863281 16.4375 64.792969 16.308594 C 64.726562 16.183594 64.667969 16.042969 64.648438 15.867188 " fill-opacity="1" fill-rule="nonzero"/><path fill="#1a1819" d="M 60.96875 12.195312 C 61.144531 12.214844 61.28125 12.273438 61.410156 12.339844 C 61.539062 12.410156 61.652344 12.496094 61.75 12.59375 C 61.847656 12.691406 61.933594 12.804688 62.003906 12.929688 C 62.070312 13.058594 62.132812 13.195312 62.148438 13.375 C 61.96875 13.355469 61.832031 13.296875 61.703125 13.226562 C 61.578125 13.15625 61.46875 13.070312 61.367188 12.972656 C 61.269531 12.875 61.183594 12.765625 61.113281 12.636719 C 61.046875 12.507812 60.984375 12.371094 60.96875 12.195312 " fill-opacity="1" fill-rule="nonzero"/><g clip-path="url(#08d1779a83)"><path fill="#1a1819" d="M 66.488281 23.75 L 68.183594 24.207031 L 66.492188 24.664062 L 66.03125 26.359375 L 65.574219 24.664062 L 63.878906 24.207031 L 65.574219 23.75 L 66.03125 22.058594 L 66.488281 23.75 " fill-opacity="1" fill-rule="nonzero"/></g><path fill="#1a1819" d="M 65.011719 25.226562 C 64.996094 25.371094 64.949219 25.484375 64.890625 25.589844 C 64.835938 25.695312 64.761719 25.785156 64.683594 25.863281 C 64.601562 25.945312 64.511719 26.015625 64.40625 26.070312 C 64.300781 26.128906 64.191406 26.175781 64.046875 26.191406 C 64.0625 26.046875 64.105469 25.933594 64.164062 25.828125 C 64.21875 25.722656 64.292969 25.632812 64.371094 25.554688 C 64.453125 25.472656 64.542969 25.402344 64.648438 25.347656 C 64.75 25.289062 64.867188 25.242188 65.011719 25.226562 " fill-opacity="1" fill-rule="nonzero"/><g clip-path="url(#1105b0f689)"><path fill="#1a1819" d="M 68.019531 22.226562 C 68.003906 22.367188 67.957031 22.480469 67.898438 22.585938 C 67.84375 22.691406 67.769531 22.78125 67.691406 22.859375 C 67.609375 22.941406 67.519531 23.011719 67.417969 23.066406 C 67.3125 23.125 67.199219 23.171875 67.054688 23.1875 C 67.066406 23.042969 67.117188 22.929688 67.171875 22.828125 C 67.226562 22.71875 67.300781 22.632812 67.378906 22.550781 C 67.460938 22.46875 67.550781 22.398438 67.65625 22.34375 C 67.757812 22.285156 67.875 22.242188 68.019531 22.226562 " fill-opacity="1" fill-rule="nonzero"/></g><g clip-path="url(#aec5af0d48)"><path fill="#1a1819" d="M 67.054688 25.226562 C 67.199219 25.242188 67.3125 25.289062 67.414062 25.347656 C 67.519531 25.402344 67.609375 25.472656 67.691406 25.554688 C 67.773438 25.632812 67.84375 25.722656 67.898438 25.828125 C 67.957031 25.933594 68.003906 26.046875 68.019531 26.191406 C 67.875 26.175781 67.757812 26.128906 67.65625 26.070312 C 67.550781 26.015625 67.460938 25.945312 67.378906 25.863281 C 67.300781 25.785156 67.226562 25.695312 67.171875 25.589844 C 67.117188 25.484375 67.070312 25.371094 67.054688 25.226562 " fill-opacity="1" fill-rule="nonzero"/></g><path fill="#1a1819" d="M 64.046875 22.226562 C 64.1875 22.242188 64.300781 22.285156 64.40625 22.34375 C 64.511719 22.398438 64.601562 22.46875 64.683594 22.550781 C 64.761719 22.632812 64.835938 22.71875 64.890625 22.828125 C 64.949219 22.929688 64.996094 23.042969 65.011719 23.1875 C 64.867188 23.171875 64.75 23.125 64.648438 23.066406 C 64.542969 23.011719 64.453125 22.941406 64.371094 22.859375 C 64.292969 22.78125 64.222656 22.691406 64.164062 22.585938 C 64.105469 22.480469 64.0625 22.367188 64.046875 22.226562 " fill-opacity="1" fill-rule="nonzero"/><path fill="#1a1819" d="M 66.320312 29.8125 C 66.320312 30.085938 66.101562 30.308594 65.828125 30.308594 C 65.554688 30.308594 65.335938 30.085938 65.335938 29.8125 C 65.335938 29.542969 65.554688 29.320312 65.828125 29.320312 C 66.101562 29.320312 66.320312 29.542969 66.320312 29.8125 " fill-opacity="1" fill-rule="nonzero"/><path fill="#1a1819" d="M 56.640625 14.621094 C 56.640625 14.894531 56.417969 15.113281 56.148438 15.113281 C 55.875 15.113281 55.652344 14.894531 55.652344 14.621094 C 55.652344 14.347656 55.875 14.128906 56.148438 14.128906 C 56.417969 14.128906 56.640625 14.347656 56.640625 14.621094 " fill-opacity="1" fill-rule="nonzero"/><path fill="#1a1819" d="M 67.546875 19.296875 C 67.546875 19.566406 67.324219 19.789062 67.054688 19.789062 C 66.78125 19.789062 66.558594 19.566406 66.558594 19.296875 C 66.558594 19.023438 66.78125 18.800781 67.054688 18.800781 C 67.324219 18.800781 67.546875 19.023438 67.546875 19.296875 " fill-opacity="1" fill-rule="nonzero"/><path stroke-linecap="round" transform="matrix(0.0230002, 0, 0, -0.0229601, -9.7326, 90.092616)" fill="none" stroke-linejoin="round" d="M 1172.637167 3024.38457 C 1101.645915 3024.38457 1017.916997 2949.526554 1006.877688 2607.561528 L 1661.253994 2607.561528 L 1661.253994 2778.544041 C 1661.253994 2806.95606 1684.181791 2829.923861 1712.544325 2829.923861 L 1927.725944 2829.923861 C 1955.918643 2829.923861 1978.846439 2806.95606 1978.846439 2778.544041 L 1978.846439 2607.561528 L 2637.978141 2607.561528 C 2643.752549 2684.971521 2657.509227 2790.453271 2686.211432 2889.640141 C 2701.666465 2943.401807 2719.669032 2987.806221 2738.860447 3024.38457 Z M 1172.637167 3024.38457 " stroke="#1a1819" stroke-width="35" stroke-opacity="1" stroke-miterlimit="10"/><path stroke-linecap="round" transform="matrix(0.0230002, 0, 0, -0.0229601, -9.7326, 90.092616)" fill="none" stroke-linejoin="round" d="M 2963.04335 3105.027068 L 1172.637167 3105.027068 C 925.016961 3105.027068 925.016961 2663.875171 925.016961 2526.919029 L 2715.083472 2526.919029 C 2715.083472 2663.875171 2761.618408 3105.027068 2963.04335 3105.027068 Z M 2963.04335 3105.027068 " stroke="#1a1819" stroke-width="35" stroke-opacity="1" stroke-miterlimit="10"/><g clip-path="url(#6d32cb9061)"><path stroke-linecap="round" transform="matrix(0.0230002, 0, 0, -0.0229601, -9.7326, 90.092616)" fill="none" stroke-linejoin="round" d="M 2715.253308 1146.979562 L 925.016961 1146.979562 L 925.016961 2182.061761 L 2715.083472 2182.061761 Z M 2715.253308 1146.979562 " stroke="#1a1819" stroke-width="35" stroke-opacity="1" stroke-miterlimit="10"/></g><path stroke-linecap="round" transform="matrix(0.0230002, 0, 0, -0.0229601, -9.7326, 90.092616)" fill="none" stroke-linejoin="round" d="M 1978.846439 2016.863731 L 1978.846439 1928.054903 C 1978.846439 1899.813015 1955.918643 1876.845215 1927.725944 1876.845215 L 1712.544325 1876.845215 C 1684.181791 1876.845215 1661.253994 1899.813015 1661.253994 1928.054903 L 1661.253994 2016.863731 L 1102.664928 2016.863731 L 1102.664928 1312.347724 L 2537.605341 1312.347724 L 2537.605341 2016.863731 Z M 1978.846439 2016.863731 " stroke="#1a1819" stroke-width="35" stroke-opacity="1" stroke-miterlimit="10"/><path stroke-linecap="round" transform="matrix(0.0230002, 0, 0, -0.0229601, -9.7326, 90.092616)" fill="none" stroke-linejoin="round" d="M 3210.833391 2179.679915 L 2715.253308 2526.919029 L 925.016961 2526.919029 L 1420.427209 2180.530574 L 1420.427209 2179.679915 Z M 3210.833391 2179.679915 " stroke="#1a1819" stroke-width="35" stroke-opacity="1" stroke-miterlimit="10"/><g clip-path="url(#8dbeab53ec)"><path stroke-linecap="round" transform="matrix(0.0230002, 0, 0, -0.0229601, -9.7326, 90.092616)" fill="none" stroke-linejoin="round" d="M 2715.253308 1146.979562 L 3210.833391 1146.979562 L 3210.833391 2182.061761 L 2715.253308 2182.061761 Z M 2715.253308 1146.979562 " stroke="#1a1819" stroke-width="35" stroke-opacity="1" stroke-miterlimit="10"/></g><path stroke-linecap="round" transform="matrix(0.0230002, 0, 0, -0.0229601, -9.7326, 90.092616)" fill="none" stroke-linejoin="round" d="M 2963.04335 3105.027068 C 2761.618408 3105.027068 2715.253308 2663.875171 2715.253308 2526.919029 L 3210.833391 2180.530574 C 3210.833391 2317.316585 3234.950037 3105.027068 2963.04335 3105.027068 Z M 2963.04335 3105.027068 " stroke="#1a1819" stroke-width="35" stroke-opacity="1" stroke-miterlimit="10"/><path stroke-linecap="round" transform="matrix(0.0230002, 0, 0, -0.0229601, -9.7326, 90.092616)" fill="none" stroke-linejoin="round" d="M 2946.229632 2251.985953 L 1446.921552 2251.985953 L 1172.637167 2455.46365 L 2671.945247 2455.46365 Z M 2946.229632 2251.985953 " stroke="#1a1819" stroke-width="35" stroke-opacity="1" stroke-miterlimit="10"/><path stroke-linecap="round" transform="matrix(0.0230002, 0, 0, -0.0229601, -9.7326, 90.092616)" fill="none" stroke-linejoin="round" d="M 1420.427209 2455.46365 L 1420.427209 2271.551116 L 1446.921552 2251.985953 L 2946.229632 2251.985953 L 2671.945247 2455.46365 Z M 1420.427209 2455.46365 " stroke="#1a1819" stroke-width="35" stroke-opacity="1" stroke-miterlimit="10"/><path stroke-linecap="round" transform="matrix(0.0230002, 0, 0, -0.0229601, -9.7326, 90.092616)" fill="none" stroke-linejoin="round" d="M 1420.427209 2455.46365 L 1172.637167 2455.46365 L 1420.427209 2271.551116 Z M 1420.427209 2455.46365 " stroke="#1a1819" stroke-width="35" stroke-opacity="1" stroke-miterlimit="10"/><path stroke-linecap="round" transform="matrix(0.0230002, 0, 0, -0.0229601, -9.7326, 90.092616)" fill="none" stroke-linejoin="round" d="M 2857.575484 1312.347724 L 3068.34138 1312.347724 L 3068.34138 2016.863731 L 2857.575484 2016.863731 Z M 2857.575484 1312.347724 " stroke="#1a1819" stroke-width="35" stroke-opacity="1" stroke-miterlimit="10"/><path stroke-linecap="round" transform="matrix(0.0230002, 0, 0, -0.0229601, -9.7326, 90.092616)" fill="none" stroke-linejoin="round" d="M 2796.774363 2568.261069 C 2805.26614 2765.61402 2872.521011 3024.38457 2963.04335 3024.38457 C 2973.233482 3024.38457 2987.329831 3022.172856 3005.162562 3004.309011 C 3034.713944 2974.365805 3088.381973 2886.577768 3115.046151 2632.911174 C 3126.085461 2527.259293 3129.652007 2420.076225 3130.501185 2334.840166 Z M 2796.774363 2568.261069 " stroke="#1a1819" stroke-width="35" stroke-opacity="1" stroke-miterlimit="10"/><path stroke-linecap="round" transform="matrix(0.0230002, 0, 0, -0.0229601, -9.7326, 90.092616)" fill="none" stroke-linejoin="round" d="M 1102.664928 1876.845215 L 2537.605341 1876.845215 " stroke="#1a1819" stroke-width="35" stroke-opacity="1" stroke-miterlimit="10"/><path stroke-linecap="round" transform="matrix(0.0230002, 0, 0, -0.0229601, -9.7326, 90.092616)" fill="none" stroke-linejoin="round" d="M 1102.664928 1664.520662 L 2537.605341 1664.520662 " stroke="#1a1819" stroke-width="35" stroke-opacity="1" stroke-miterlimit="10"/><path stroke-linecap="round" transform="matrix(0.0230002, 0, 0, -0.0229601, -9.7326, 90.092616)" fill="none" stroke-linejoin="round" d="M 1102.664928 1452.196108 L 2537.605341 1452.196108 " stroke="#1a1819" stroke-width="35" stroke-opacity="1" stroke-miterlimit="10"/><path stroke-linecap="round" transform="matrix(0.0230002, 0, 0, -0.0229601, -9.7326, 90.092616)" fill="none" stroke-linejoin="round" d="M 1962.881899 2815.973049 L 2667.699359 2815.973049 " stroke="#1a1819" stroke-width="35" stroke-opacity="1" stroke-miterlimit="10"/><path stroke-linecap="round" transform="matrix(0.0230002, 0, 0, -0.0229601, -9.7326, 90.092616)" fill="none" stroke-linejoin="round" d="M 1027.257951 2815.973049 L 1677.218534 2815.973049 " stroke="#1a1819" stroke-width="35" stroke-opacity="1" stroke-miterlimit="10"/><path stroke-linecap="round" transform="matrix(0.0230002, 0, 0, -0.0229601, -9.7326, 90.092616)" fill="none" stroke-linejoin="round" d="M 2857.575484 1876.845215 L 3068.34138 1876.845215 " stroke="#1a1819" stroke-width="35" stroke-opacity="1" stroke-miterlimit="10"/><path stroke-linecap="round" transform="matrix(0.0230002, 0, 0, -0.0229601, -9.7326, 90.092616)" fill="none" stroke-linejoin="round" d="M 2857.575484 1664.520662 L 3068.34138 1664.520662 " stroke="#1a1819" stroke-width="35" stroke-opacity="1" stroke-miterlimit="10"/><path stroke-linecap="round" transform="matrix(0.0230002, 0, 0, -0.0229601, -9.7326, 90.092616)" fill="none" stroke-linejoin="round" d="M 2857.575484 1452.196108 L 3068.34138 1452.196108 " stroke="#1a1819" stroke-width="35" stroke-opacity="1" stroke-miterlimit="10"/><path stroke-linecap="round" transform="matrix(0.0230002, 0, 0, -0.0229601, -9.7326, 90.092616)" fill="none" stroke-linejoin="round" d="M 2830.401799 2804.063819 L 3117.76352 2603.648495 " stroke="#1a1819" stroke-width="35" stroke-opacity="1" stroke-miterlimit="10"/><path stroke-linecap="round" transform="matrix(0.0230002, 0, 0, -0.0229601, -9.7326, 90.092616)" fill="none" stroke-linejoin="round" d="M 1978.846439 1928.054903 C 1978.846439 1899.813015 1955.918643 1876.845215 1927.725944 1876.845215 L 1712.544325 1876.845215 C 1684.181791 1876.845215 1661.253994 1899.813015 1661.253994 1928.054903 L 1661.253994 2126.088381 C 1661.253994 2154.330269 1684.181791 2177.468201 1712.544325 2177.468201 L 1927.725944 2177.468201 C 1955.918643 2177.468201 1978.846439 2154.330269 1978.846439 2126.088381 Z M 1978.846439 1928.054903 " stroke="#1a1819" stroke-width="35" stroke-opacity="1" stroke-miterlimit="10"/><path stroke-linecap="round" transform="matrix(0.0230002, 0, 0, -0.0229601, -9.7326, 90.092616)" fill="none" stroke-linejoin="round" d="M 1978.846439 2580.680695 C 1978.846439 2552.438807 1955.918643 2529.471007 1927.725944 2529.471007 L 1712.544325 2529.471007 C 1684.181791 2529.471007 1661.253994 2552.438807 1661.253994 2580.680695 L 1661.253994 2778.544041 C 1661.253994 2806.95606 1684.181791 2829.923861 1712.544325 2829.923861 L 1927.725944 2829.923861 C 1955.918643 2829.923861 1978.846439 2806.95606 1978.846439 2778.544041 Z M 1978.846439 2580.680695 " stroke="#1a1819" stroke-width="35" stroke-opacity="1" stroke-miterlimit="10"/><path stroke-linecap="round" transform="matrix(0.0230002, 0, 0, -0.0229601, -9.7326, 90.092616)" fill="none" stroke-linejoin="round" d="M 1820.050217 2529.471007 L 1820.050217 2721.379738 " stroke="#1a1819" stroke-width="35" stroke-opacity="1" stroke-miterlimit="10"/><path stroke-linecap="round" transform="matrix(0.0230002, 0, 0, -0.0229601, -9.7326, 90.092616)" fill="none" stroke-linejoin="round" d="M 1820.050217 2177.468201 L 1820.050217 2027.071642 " stroke="#1a1819" stroke-width="35" stroke-opacity="1" stroke-miterlimit="10"/><g fill="#1a1819" fill-opacity="1"><g transform="translate(78.448867, 48.99886)"><g><path d="M 9.5625 0 C 8.988281 0 8.519531 -0.175781 8.15625 -0.53125 C 7.789062 -0.894531 7.609375 -1.34375 7.609375 -1.875 L 7.609375 -19.65625 L 11.59375 -19.65625 L 11.59375 -1.875 C 11.59375 -1.34375 11.398438 -0.894531 11.015625 -0.53125 C 10.640625 -0.175781 10.15625 0 9.5625 0 Z M 2.796875 -17.9375 C 2.265625 -17.9375 1.816406 -18.097656 1.453125 -18.421875 C 1.097656 -18.753906 0.921875 -19.1875 0.921875 -19.71875 C 0.921875 -20.25 1.097656 -20.671875 1.453125 -20.984375 C 1.816406 -21.296875 2.265625 -21.453125 2.796875 -21.453125 L 16.40625 -21.453125 C 16.9375 -21.453125 17.378906 -21.289062 17.734375 -20.96875 C 18.085938 -20.644531 18.265625 -20.21875 18.265625 -19.6875 C 18.265625 -19.15625 18.085938 -18.726562 17.734375 -18.40625 C 17.378906 -18.09375 16.9375 -17.9375 16.40625 -17.9375 Z M 2.796875 -17.9375 "/></g></g></g><g fill="#1a1819" fill-opacity="1"><g transform="translate(97.640383, 48.99886)"><g><path d="M 17.90625 -8.1875 C 17.90625 -6.507812 17.53125 -5.03125 16.78125 -3.75 C 16.039062 -2.476562 15.039062 -1.484375 13.78125 -0.765625 C 12.519531 -0.046875 11.113281 0.3125 9.5625 0.3125 C 8.007812 0.3125 6.601562 -0.046875 5.34375 -0.765625 C 4.09375 -1.484375 3.09375 -2.476562 2.34375 -3.75 C 1.59375 -5.03125 1.21875 -6.507812 1.21875 -8.1875 C 1.21875 -9.863281 1.59375 -11.335938 2.34375 -12.609375 C 3.09375 -13.890625 4.09375 -14.890625 5.34375 -15.609375 C 6.601562 -16.335938 8.007812 -16.703125 9.5625 -16.703125 C 11.113281 -16.703125 12.519531 -16.335938 13.78125 -15.609375 C 15.039062 -14.890625 16.039062 -13.890625 16.78125 -12.609375 C 17.53125 -11.335938 17.90625 -9.863281 17.90625 -8.1875 Z M 14.21875 -8.1875 C 14.21875 -9.226562 14.007812 -10.128906 13.59375 -10.890625 C 13.175781 -11.660156 12.613281 -12.257812 11.90625 -12.6875 C 11.207031 -13.113281 10.425781 -13.328125 9.5625 -13.328125 C 8.707031 -13.328125 7.925781 -13.113281 7.21875 -12.6875 C 6.507812 -12.257812 5.945312 -11.660156 5.53125 -10.890625 C 5.113281 -10.128906 4.90625 -9.226562 4.90625 -8.1875 C 4.90625 -7.164062 5.113281 -6.269531 5.53125 -5.5 C 5.945312 -4.738281 6.507812 -4.140625 7.21875 -3.703125 C 7.925781 -3.273438 8.707031 -3.0625 9.5625 -3.0625 C 10.425781 -3.0625 11.207031 -3.273438 11.90625 -3.703125 C 12.613281 -4.140625 13.175781 -4.738281 13.59375 -5.5 C 14.007812 -6.269531 14.21875 -7.164062 14.21875 -8.1875 Z M 14.21875 -8.1875 "/></g></g></g><g fill="#1a1819" fill-opacity="1"><g transform="translate(116.770581, 48.99886)"><g><path d="M 14.15625 -16.40625 C 14.6875 -16.40625 15.125 -16.222656 15.46875 -15.859375 C 15.820312 -15.503906 16 -15.0625 16 -14.53125 L 16 -1.5 C 16 0.375 15.644531 1.867188 14.9375 2.984375 C 14.238281 4.097656 13.296875 4.898438 12.109375 5.390625 C 10.921875 5.878906 9.59375 6.125 8.125 6.125 C 7.46875 6.125 6.769531 6.070312 6.03125 5.96875 C 5.300781 5.875 4.703125 5.722656 4.234375 5.515625 C 3.617188 5.253906 3.191406 4.921875 2.953125 4.515625 C 2.722656 4.117188 2.679688 3.695312 2.828125 3.25 C 3.003906 2.65625 3.296875 2.25 3.703125 2.03125 C 4.117188 1.820312 4.550781 1.800781 5 1.96875 C 5.320312 2.0625 5.75 2.21875 6.28125 2.4375 C 6.8125 2.65625 7.425781 2.765625 8.125 2.765625 C 9.0625 2.765625 9.84375 2.632812 10.46875 2.375 C 11.09375 2.125 11.5625 1.695312 11.875 1.09375 C 12.195312 0.488281 12.359375 -0.332031 12.359375 -1.375 L 12.359375 -3.4375 L 13 -2.703125 C 12.65625 -2.023438 12.21875 -1.46875 11.6875 -1.03125 C 11.164062 -0.59375 10.546875 -0.257812 9.828125 -0.03125 C 9.117188 0.195312 8.304688 0.3125 7.390625 0.3125 C 6.304688 0.3125 5.359375 0.0625 4.546875 -0.4375 C 3.742188 -0.945312 3.117188 -1.644531 2.671875 -2.53125 C 2.222656 -3.414062 2 -4.429688 2 -5.578125 L 2 -14.53125 C 2 -15.0625 2.171875 -15.503906 2.515625 -15.859375 C 2.859375 -16.222656 3.296875 -16.40625 3.828125 -16.40625 C 4.359375 -16.40625 4.796875 -16.222656 5.140625 -15.859375 C 5.492188 -15.503906 5.671875 -15.0625 5.671875 -14.53125 L 5.671875 -6.6875 C 5.671875 -5.351562 5.960938 -4.414062 6.546875 -3.875 C 7.128906 -3.332031 7.941406 -3.0625 8.984375 -3.0625 C 9.703125 -3.0625 10.304688 -3.195312 10.796875 -3.46875 C 11.285156 -3.75 11.660156 -4.160156 11.921875 -4.703125 C 12.191406 -5.242188 12.328125 -5.90625 12.328125 -6.6875 L 12.328125 -14.53125 C 12.328125 -15.0625 12.5 -15.503906 12.84375 -15.859375 C 13.1875 -16.222656 13.625 -16.40625 14.15625 -16.40625 Z M 14.15625 -16.40625 "/></g></g></g><g fill="#1a1819" fill-opacity="1"><g transform="translate(134.766457, 48.99886)"><g><path d="M 17.328125 -20.421875 C 17.859375 -20.148438 18.164062 -19.726562 18.25 -19.15625 C 18.34375 -18.582031 18.195312 -18.0625 17.8125 -17.59375 C 17.539062 -17.226562 17.195312 -17.023438 16.78125 -16.984375 C 16.363281 -16.941406 15.941406 -17.023438 15.515625 -17.234375 C 15.023438 -17.453125 14.507812 -17.625 13.96875 -17.75 C 13.425781 -17.875 12.859375 -17.9375 12.265625 -17.9375 C 11.160156 -17.9375 10.171875 -17.757812 9.296875 -17.40625 C 8.429688 -17.0625 7.691406 -16.566406 7.078125 -15.921875 C 6.460938 -15.273438 6 -14.515625 5.6875 -13.640625 C 5.375 -12.765625 5.21875 -11.796875 5.21875 -10.734375 C 5.21875 -9.484375 5.394531 -8.394531 5.75 -7.46875 C 6.101562 -6.550781 6.597656 -5.785156 7.234375 -5.171875 C 7.867188 -4.566406 8.613281 -4.113281 9.46875 -3.8125 C 10.332031 -3.519531 11.265625 -3.375 12.265625 -3.375 C 12.816406 -3.375 13.367188 -3.421875 13.921875 -3.515625 C 14.472656 -3.617188 15.003906 -3.804688 15.515625 -4.078125 C 15.941406 -4.285156 16.363281 -4.359375 16.78125 -4.296875 C 17.195312 -4.234375 17.550781 -4.015625 17.84375 -3.640625 C 18.25 -3.128906 18.394531 -2.601562 18.28125 -2.0625 C 18.175781 -1.519531 17.863281 -1.128906 17.34375 -0.890625 C 16.8125 -0.617188 16.265625 -0.394531 15.703125 -0.21875 C 15.148438 -0.0507812 14.585938 0.078125 14.015625 0.171875 C 13.441406 0.265625 12.859375 0.3125 12.265625 0.3125 C 10.796875 0.3125 9.398438 0.078125 8.078125 -0.390625 C 6.753906 -0.867188 5.578125 -1.566406 4.546875 -2.484375 C 3.515625 -3.398438 2.703125 -4.546875 2.109375 -5.921875 C 1.515625 -7.304688 1.21875 -8.910156 1.21875 -10.734375 C 1.21875 -12.304688 1.488281 -13.753906 2.03125 -15.078125 C 2.570312 -16.410156 3.335938 -17.5625 4.328125 -18.53125 C 5.328125 -19.5 6.5 -20.253906 7.84375 -20.796875 C 9.195312 -21.335938 10.671875 -21.609375 12.265625 -21.609375 C 13.160156 -21.609375 14.035156 -21.503906 14.890625 -21.296875 C 15.753906 -21.097656 16.566406 -20.804688 17.328125 -20.421875 Z M 17.328125 -20.421875 "/></g></g></g><g fill="#1a1819" fill-opacity="1"><g transform="translate(153.988622, 48.99886)"><g><path d="M 10.609375 -16.703125 C 12.078125 -16.703125 13.191406 -16.382812 13.953125 -15.75 C 14.722656 -15.125 15.25 -14.285156 15.53125 -13.234375 C 15.820312 -12.179688 15.96875 -11.007812 15.96875 -9.71875 L 15.96875 -1.875 C 15.96875 -1.34375 15.789062 -0.894531 15.4375 -0.53125 C 15.09375 -0.175781 14.65625 0 14.125 0 C 13.59375 0 13.15625 -0.175781 12.8125 -0.53125 C 12.46875 -0.894531 12.296875 -1.34375 12.296875 -1.875 L 12.296875 -9.71875 C 12.296875 -10.394531 12.210938 -11.003906 12.046875 -11.546875 C 11.878906 -12.085938 11.582031 -12.519531 11.15625 -12.84375 C 10.726562 -13.164062 10.113281 -13.328125 9.3125 -13.328125 C 8.539062 -13.328125 7.878906 -13.164062 7.328125 -12.84375 C 6.773438 -12.519531 6.359375 -12.085938 6.078125 -11.546875 C 5.804688 -11.003906 5.671875 -10.394531 5.671875 -9.71875 L 5.671875 -1.875 C 5.671875 -1.34375 5.492188 -0.894531 5.140625 -0.53125 C 4.796875 -0.175781 4.359375 0 3.828125 0 C 3.296875 0 2.859375 -0.175781 2.515625 -0.53125 C 2.171875 -0.894531 2 -1.34375 2 -1.875 L 2 -20.8125 C 2 -21.34375 2.171875 -21.785156 2.515625 -22.140625 C 2.859375 -22.503906 3.296875 -22.6875 3.828125 -22.6875 C 4.359375 -22.6875 4.796875 -22.503906 5.140625 -22.140625 C 5.492188 -21.785156 5.671875 -21.34375 5.671875 -20.8125 L 5.671875 -13.21875 L 5.21875 -13.3125 C 5.394531 -13.65625 5.644531 -14.023438 5.96875 -14.421875 C 6.300781 -14.816406 6.703125 -15.1875 7.171875 -15.53125 C 7.640625 -15.882812 8.160156 -16.164062 8.734375 -16.375 C 9.304688 -16.59375 9.929688 -16.703125 10.609375 -16.703125 Z M 10.609375 -16.703125 "/></g></g></g><g fill="#1a1819" fill-opacity="1"><g transform="translate(171.953839, 48.99886)"><g><path d="M 9.71875 0.3125 C 7.976562 0.3125 6.46875 -0.0507812 5.1875 -0.78125 C 3.914062 -1.507812 2.9375 -2.492188 2.25 -3.734375 C 1.5625 -4.984375 1.21875 -6.394531 1.21875 -7.96875 C 1.21875 -9.8125 1.59375 -11.378906 2.34375 -12.671875 C 3.09375 -13.972656 4.066406 -14.96875 5.265625 -15.65625 C 6.472656 -16.351562 7.753906 -16.703125 9.109375 -16.703125 C 10.148438 -16.703125 11.132812 -16.488281 12.0625 -16.0625 C 12.988281 -15.632812 13.8125 -15.046875 14.53125 -14.296875 C 15.25 -13.554688 15.816406 -12.691406 16.234375 -11.703125 C 16.648438 -10.722656 16.859375 -9.679688 16.859375 -8.578125 C 16.835938 -8.085938 16.644531 -7.6875 16.28125 -7.375 C 15.914062 -7.070312 15.484375 -6.921875 14.984375 -6.921875 L 3.28125 -6.921875 L 2.359375 -10 L 13.609375 -10 L 12.9375 -9.375 L 12.9375 -10.203125 C 12.894531 -10.796875 12.679688 -11.328125 12.296875 -11.796875 C 11.921875 -12.265625 11.453125 -12.632812 10.890625 -12.90625 C 10.335938 -13.1875 9.742188 -13.328125 9.109375 -13.328125 C 8.492188 -13.328125 7.921875 -13.242188 7.390625 -13.078125 C 6.859375 -12.921875 6.394531 -12.648438 6 -12.265625 C 5.613281 -11.878906 5.304688 -11.359375 5.078125 -10.703125 C 4.859375 -10.046875 4.75 -9.21875 4.75 -8.21875 C 4.75 -7.113281 4.976562 -6.175781 5.4375 -5.40625 C 5.894531 -4.644531 6.488281 -4.0625 7.21875 -3.65625 C 7.945312 -3.257812 8.71875 -3.0625 9.53125 -3.0625 C 10.289062 -3.0625 10.894531 -3.125 11.34375 -3.25 C 11.789062 -3.375 12.148438 -3.519531 12.421875 -3.6875 C 12.703125 -3.863281 12.957031 -4.015625 13.1875 -4.140625 C 13.550781 -4.328125 13.894531 -4.421875 14.21875 -4.421875 C 14.675781 -4.421875 15.050781 -4.265625 15.34375 -3.953125 C 15.632812 -3.648438 15.78125 -3.289062 15.78125 -2.875 C 15.78125 -2.320312 15.492188 -1.820312 14.921875 -1.375 C 14.390625 -0.925781 13.644531 -0.53125 12.6875 -0.1875 C 11.726562 0.144531 10.738281 0.3125 9.71875 0.3125 Z M 9.71875 0.3125 "/></g></g></g><g fill="#1a1819" fill-opacity="1"><g transform="translate(190.041683, 48.99886)"><g><path d="M 1.046875 -2.546875 C 0.835938 -2.828125 0.742188 -3.191406 0.765625 -3.640625 C 0.785156 -4.097656 1.050781 -4.488281 1.5625 -4.8125 C 1.882812 -5.019531 2.226562 -5.109375 2.59375 -5.078125 C 2.96875 -5.046875 3.328125 -4.851562 3.671875 -4.5 C 4.265625 -3.914062 4.890625 -3.457031 5.546875 -3.125 C 6.203125 -2.800781 7.019531 -2.640625 8 -2.640625 C 8.3125 -2.660156 8.648438 -2.703125 9.015625 -2.765625 C 9.378906 -2.835938 9.695312 -3 9.96875 -3.25 C 10.25 -3.507812 10.390625 -3.90625 10.390625 -4.4375 C 10.390625 -4.894531 10.234375 -5.253906 9.921875 -5.515625 C 9.617188 -5.785156 9.21875 -6.007812 8.71875 -6.1875 C 8.21875 -6.375 7.660156 -6.550781 7.046875 -6.71875 C 6.410156 -6.894531 5.757812 -7.097656 5.09375 -7.328125 C 4.4375 -7.554688 3.832031 -7.847656 3.28125 -8.203125 C 2.726562 -8.554688 2.273438 -9.03125 1.921875 -9.625 C 1.578125 -10.21875 1.40625 -10.960938 1.40625 -11.859375 C 1.40625 -12.878906 1.691406 -13.75 2.265625 -14.46875 C 2.835938 -15.1875 3.578125 -15.738281 4.484375 -16.125 C 5.398438 -16.507812 6.359375 -16.703125 7.359375 -16.703125 C 7.992188 -16.703125 8.65625 -16.625 9.34375 -16.46875 C 10.039062 -16.320312 10.707031 -16.078125 11.34375 -15.734375 C 11.976562 -15.398438 12.507812 -14.957031 12.9375 -14.40625 C 13.164062 -14.101562 13.296875 -13.734375 13.328125 -13.296875 C 13.367188 -12.867188 13.175781 -12.484375 12.75 -12.140625 C 12.445312 -11.890625 12.085938 -11.78125 11.671875 -11.8125 C 11.265625 -11.84375 10.929688 -11.984375 10.671875 -12.234375 C 10.316406 -12.679688 9.847656 -13.035156 9.265625 -13.296875 C 8.691406 -13.566406 8.023438 -13.703125 7.265625 -13.703125 C 6.960938 -13.703125 6.628906 -13.664062 6.265625 -13.59375 C 5.910156 -13.519531 5.597656 -13.363281 5.328125 -13.125 C 5.066406 -12.894531 4.9375 -12.523438 4.9375 -12.015625 C 4.9375 -11.546875 5.085938 -11.171875 5.390625 -10.890625 C 5.703125 -10.617188 6.117188 -10.394531 6.640625 -10.21875 C 7.160156 -10.050781 7.71875 -9.882812 8.3125 -9.71875 C 8.925781 -9.550781 9.546875 -9.351562 10.171875 -9.125 C 10.804688 -8.90625 11.390625 -8.609375 11.921875 -8.234375 C 12.453125 -7.867188 12.878906 -7.394531 13.203125 -6.8125 C 13.535156 -6.238281 13.703125 -5.5 13.703125 -4.59375 C 13.703125 -3.550781 13.394531 -2.660156 12.78125 -1.921875 C 12.164062 -1.191406 11.398438 -0.632812 10.484375 -0.25 C 9.566406 0.125 8.628906 0.3125 7.671875 0.3125 C 6.460938 0.3125 5.253906 0.101562 4.046875 -0.3125 C 2.835938 -0.738281 1.835938 -1.484375 1.046875 -2.546875 Z M 1.046875 -2.546875 "/></g></g></g><g fill="#1a1819" fill-opacity="1"><g transform="translate(204.818537, 48.99886)"><g><path d="M 2.171875 -16.09375 L 9.4375 -16.09375 C 9.925781 -16.09375 10.332031 -15.925781 10.65625 -15.59375 C 10.988281 -15.269531 11.15625 -14.863281 11.15625 -14.375 C 11.15625 -13.90625 10.988281 -13.507812 10.65625 -13.1875 C 10.332031 -12.875 9.925781 -12.71875 9.4375 -12.71875 L 2.171875 -12.71875 C 1.679688 -12.71875 1.269531 -12.878906 0.9375 -13.203125 C 0.613281 -13.535156 0.453125 -13.945312 0.453125 -14.4375 C 0.453125 -14.90625 0.613281 -15.296875 0.9375 -15.609375 C 1.269531 -15.929688 1.679688 -16.09375 2.171875 -16.09375 Z M 5.453125 -19.921875 C 5.984375 -19.921875 6.414062 -19.742188 6.75 -19.390625 C 7.09375 -19.035156 7.265625 -18.59375 7.265625 -18.0625 L 7.265625 -4.421875 C 7.265625 -4.128906 7.320312 -3.890625 7.4375 -3.703125 C 7.550781 -3.523438 7.703125 -3.394531 7.890625 -3.3125 C 8.085938 -3.226562 8.296875 -3.1875 8.515625 -3.1875 C 8.765625 -3.1875 8.988281 -3.234375 9.1875 -3.328125 C 9.394531 -3.421875 9.632812 -3.46875 9.90625 -3.46875 C 10.1875 -3.46875 10.441406 -3.332031 10.671875 -3.0625 C 10.910156 -2.800781 11.03125 -2.4375 11.03125 -1.96875 C 11.03125 -1.394531 10.71875 -0.921875 10.09375 -0.546875 C 9.476562 -0.179688 8.8125 0 8.09375 0 C 7.664062 0 7.191406 -0.0351562 6.671875 -0.109375 C 6.148438 -0.179688 5.65625 -0.351562 5.1875 -0.625 C 4.726562 -0.90625 4.347656 -1.332031 4.046875 -1.90625 C 3.742188 -2.476562 3.59375 -3.265625 3.59375 -4.265625 L 3.59375 -18.0625 C 3.59375 -18.59375 3.769531 -19.035156 4.125 -19.390625 C 4.476562 -19.742188 4.921875 -19.921875 5.453125 -19.921875 Z M 5.453125 -19.921875 "/></g></g></g></svg>