<svg xmlns="http://www.w3.org/2000/svg" xmlns:xlink="http://www.w3.org/1999/xlink" width="500" zoomAndPan="magnify" viewBox="0 0 375 374.999991" height="500" preserveAspectRatio="xMidYMid meet" version="1.0"><defs><clipPath id="63b409cf65"><path d="M 37.5 76 L 64 76 L 64 103 L 37.5 103 Z M 37.5 76 " clip-rule="nonzero"/></clipPath><clipPath id="3f00c7857e"><path d="M 56 55.773438 L 62 55.773438 L 62 61 L 56 61 Z M 56 55.773438 " clip-rule="nonzero"/></clipPath><clipPath id="776bfb2741"><path d="M 316 110 L 337.5 110 L 337.5 133 L 316 133 Z M 316 110 " clip-rule="nonzero"/></clipPath><clipPath id="23019e54ae"><path d="M 55 197 L 263 197 L 263 319.023438 L 55 319.023438 Z M 55 197 " clip-rule="nonzero"/></clipPath><clipPath id="44dd7a5bf9"><path d="M 258 197 L 320 197 L 320 319.023438 L 258 319.023438 Z M 258 197 " clip-rule="nonzero"/></clipPath></defs><g clip-path="url(#63b409cf65)"><path fill="#1a1819" d="M 53.523438 87.039062 L 63.765625 89.808594 L 53.523438 92.578125 L 50.75 102.8125 L 47.976562 92.578125 L 37.734375 89.808594 L 47.976562 87.039062 L 50.75 76.796875 L 53.523438 87.039062 " fill-opacity="1" fill-rule="nonzero"/></g><path fill="#1a1819" d="M 44.578125 95.976562 C 44.480469 96.851562 44.191406 97.53125 43.855469 98.167969 C 43.503906 98.792969 43.085938 99.335938 42.597656 99.824219 C 42.109375 100.3125 41.5625 100.734375 40.9375 101.085938 C 40.304688 101.414062 39.621094 101.710938 38.742188 101.800781 C 38.835938 100.925781 39.121094 100.246094 39.460938 99.609375 C 39.808594 98.984375 40.230469 98.429688 40.722656 97.953125 C 41.203125 97.464844 41.753906 97.042969 42.382812 96.691406 C 43.015625 96.363281 43.699219 96.066406 44.578125 95.976562 " fill-opacity="1" fill-rule="nonzero"/><path fill="#1a1819" d="M 62.757812 77.804688 C 62.660156 78.679688 62.371094 79.359375 62.035156 79.996094 C 61.6875 80.621094 61.265625 81.179688 60.777344 81.667969 C 60.296875 82.144531 59.746094 82.574219 59.117188 82.914062 C 58.488281 83.257812 57.800781 83.550781 56.921875 83.640625 C 57.015625 82.757812 57.304688 82.074219 57.640625 81.4375 C 57.992188 80.8125 58.414062 80.269531 58.894531 79.78125 C 59.386719 79.292969 59.941406 78.871094 60.5625 78.53125 C 61.199219 78.191406 61.878906 77.898438 62.757812 77.804688 " fill-opacity="1" fill-rule="nonzero"/><path fill="#1a1819" d="M 56.921875 95.976562 C 57.800781 96.066406 58.480469 96.363281 59.117188 96.691406 C 59.746094 97.042969 60.296875 97.464844 60.777344 97.953125 C 61.265625 98.429688 61.6875 98.984375 62.039062 99.609375 C 62.378906 100.246094 62.664062 100.925781 62.757812 101.800781 C 61.875 101.710938 61.195312 101.414062 60.5625 101.085938 C 59.933594 100.734375 59.386719 100.3125 58.894531 99.824219 C 58.417969 99.335938 57.992188 98.792969 57.644531 98.167969 C 57.308594 97.53125 57.015625 96.851562 56.921875 95.976562 " fill-opacity="1" fill-rule="nonzero"/><path fill="#1a1819" d="M 38.742188 77.804688 C 39.613281 77.898438 40.300781 78.191406 40.9375 78.53125 C 41.558594 78.871094 42.109375 79.292969 42.597656 79.78125 C 43.085938 80.269531 43.507812 80.8125 43.859375 81.4375 C 44.195312 82.074219 44.484375 82.757812 44.578125 83.640625 C 43.695312 83.550781 43.011719 83.257812 42.382812 82.914062 C 41.753906 82.574219 41.203125 82.144531 40.722656 81.667969 C 40.230469 81.179688 39.808594 80.621094 39.460938 79.996094 C 39.128906 79.359375 38.835938 78.679688 38.742188 77.804688 " fill-opacity="1" fill-rule="nonzero"/><g clip-path="url(#3f00c7857e)"><path fill="#1a1819" d="M 61.335938 58.253906 C 61.335938 59.601562 60.242188 60.691406 58.894531 60.691406 C 57.546875 60.691406 56.453125 59.601562 56.453125 58.253906 C 56.453125 56.90625 57.546875 55.816406 58.894531 55.816406 C 60.242188 55.816406 61.335938 56.90625 61.335938 58.253906 " fill-opacity="1" fill-rule="nonzero"/></g><path fill="#1a1819" d="M 77.210938 76.292969 C 77.210938 77.636719 76.128906 78.726562 74.777344 78.726562 C 73.4375 78.726562 72.335938 77.636719 72.335938 76.292969 C 72.335938 74.945312 73.4375 73.851562 74.777344 73.851562 C 76.128906 73.851562 77.210938 74.945312 77.210938 76.292969 " fill-opacity="1" fill-rule="nonzero"/><path fill="#1a1819" d="M 50.75 115.851562 C 50.75 117.191406 49.65625 118.292969 48.308594 118.292969 C 46.960938 118.292969 45.871094 117.191406 45.871094 115.851562 C 45.871094 114.5 46.960938 113.410156 48.308594 113.410156 C 49.65625 113.410156 50.75 114.5 50.75 115.851562 " fill-opacity="1" fill-rule="nonzero"/><path fill="#1a1819" d="M 316.496094 71.277344 L 326.738281 74.042969 L 316.496094 76.820312 L 313.722656 87.050781 L 310.949219 76.820312 L 300.699219 74.042969 L 310.949219 71.277344 L 313.722656 61.042969 L 316.496094 71.277344 " fill-opacity="1" fill-rule="nonzero"/><path fill="#1a1819" d="M 307.550781 80.210938 C 307.449219 81.085938 307.164062 81.769531 306.824219 82.40625 C 306.472656 83.027344 306.050781 83.585938 305.574219 84.074219 C 305.085938 84.5625 304.527344 84.980469 303.902344 85.335938 C 303.277344 85.664062 302.585938 85.960938 301.710938 86.039062 C 301.800781 85.164062 302.097656 84.484375 302.425781 83.847656 C 302.777344 83.222656 303.199219 82.675781 303.6875 82.1875 C 304.175781 81.699219 304.722656 81.28125 305.347656 80.929688 C 305.984375 80.597656 306.664062 80.304688 307.550781 80.210938 " fill-opacity="1" fill-rule="nonzero"/><path fill="#1a1819" d="M 325.726562 62.042969 C 325.632812 62.921875 325.339844 63.605469 325.007812 64.238281 C 324.65625 64.863281 324.238281 65.414062 323.746094 65.902344 C 323.269531 66.386719 322.714844 66.808594 322.089844 67.160156 C 321.453125 67.496094 320.769531 67.789062 319.894531 67.878906 C 319.984375 67 320.269531 66.316406 320.609375 65.679688 C 320.953125 65.054688 321.382812 64.507812 321.871094 64.023438 C 322.351562 63.539062 322.90625 63.113281 323.53125 62.765625 C 324.167969 62.429688 324.851562 62.140625 325.726562 62.042969 " fill-opacity="1" fill-rule="nonzero"/><path fill="#1a1819" d="M 319.894531 80.210938 C 320.769531 80.304688 321.453125 80.597656 322.089844 80.929688 C 322.714844 81.28125 323.257812 81.699219 323.746094 82.1875 C 324.238281 82.675781 324.65625 83.222656 325.007812 83.847656 C 325.351562 84.484375 325.632812 85.164062 325.726562 86.039062 C 324.851562 85.960938 324.167969 85.664062 323.53125 85.335938 C 322.90625 84.980469 322.351562 84.5625 321.871094 84.074219 C 321.382812 83.585938 320.964844 83.027344 320.609375 82.40625 C 320.28125 81.769531 319.984375 81.085938 319.894531 80.210938 " fill-opacity="1" fill-rule="nonzero"/><path fill="#1a1819" d="M 301.710938 62.042969 C 302.585938 62.140625 303.269531 62.429688 303.902344 62.765625 C 304.527344 63.113281 305.085938 63.535156 305.574219 64.023438 C 306.050781 64.507812 306.484375 65.054688 306.824219 65.679688 C 307.164062 66.316406 307.460938 67 307.550781 67.878906 C 306.664062 67.789062 305.984375 67.496094 305.347656 67.160156 C 304.722656 66.808594 304.175781 66.386719 303.6875 65.898438 C 303.199219 65.414062 302.777344 64.863281 302.425781 64.238281 C 302.097656 63.605469 301.800781 62.921875 301.710938 62.042969 " fill-opacity="1" fill-rule="nonzero"/><g clip-path="url(#776bfb2741)"><path fill="#1a1819" d="M 329 119.199219 L 337.375 121.472656 L 329.011719 123.730469 L 326.738281 132.101562 L 324.464844 123.730469 L 316.085938 121.472656 L 324.464844 119.199219 L 326.738281 110.832031 L 329 119.199219 " fill-opacity="1" fill-rule="nonzero"/></g><path fill="#1a1819" d="M 321.691406 126.515625 C 321.609375 127.230469 321.382812 127.785156 321.101562 128.296875 C 320.816406 128.820312 320.464844 129.261719 320.066406 129.660156 C 319.667969 130.058594 319.222656 130.410156 318.703125 130.683594 C 318.191406 130.964844 317.632812 131.203125 316.917969 131.285156 C 316.996094 130.558594 317.222656 130 317.507812 129.488281 C 317.78125 128.96875 318.132812 128.523438 318.53125 128.125 C 318.929688 127.730469 319.371094 127.378906 319.894531 127.105469 C 320.40625 126.820312 320.976562 126.59375 321.691406 126.515625 " fill-opacity="1" fill-rule="nonzero"/><path fill="#1a1819" d="M 336.558594 111.660156 C 336.476562 112.363281 336.25 112.929688 335.953125 113.441406 C 335.679688 113.964844 335.328125 114.40625 334.929688 114.804688 C 334.535156 115.203125 334.089844 115.554688 333.578125 115.828125 C 333.066406 116.109375 332.5 116.351562 331.785156 116.417969 C 331.851562 115.714844 332.089844 115.144531 332.375 114.636719 C 332.648438 114.113281 333 113.667969 333.398438 113.273438 C 333.796875 112.875 334.25 112.523438 334.761719 112.25 C 335.273438 111.964844 335.839844 111.738281 336.558594 111.660156 " fill-opacity="1" fill-rule="nonzero"/><path fill="#1a1819" d="M 331.785156 126.515625 C 332.5 126.59375 333.066406 126.820312 333.566406 127.105469 C 334.089844 127.378906 334.535156 127.730469 334.929688 128.125 C 335.339844 128.523438 335.691406 128.96875 335.964844 129.488281 C 336.25 130 336.476562 130.558594 336.558594 131.285156 C 335.839844 131.203125 335.273438 130.964844 334.761719 130.683594 C 334.238281 130.410156 333.796875 130.058594 333.398438 129.660156 C 333.011719 129.261719 332.648438 128.820312 332.375 128.296875 C 332.089844 127.785156 331.863281 127.230469 331.785156 126.515625 " fill-opacity="1" fill-rule="nonzero"/><path fill="#1a1819" d="M 316.917969 111.660156 C 317.621094 111.738281 318.191406 111.964844 318.703125 112.25 C 319.222656 112.523438 319.667969 112.875 320.066406 113.273438 C 320.464844 113.667969 320.816406 114.113281 321.101562 114.636719 C 321.382812 115.144531 321.609375 115.714844 321.691406 116.417969 C 320.976562 116.339844 320.40625 116.109375 319.894531 115.828125 C 319.371094 115.554688 318.929688 115.203125 318.53125 114.804688 C 318.132812 114.40625 317.792969 113.964844 317.507812 113.441406 C 317.222656 112.929688 316.996094 112.363281 316.917969 111.660156 " fill-opacity="1" fill-rule="nonzero"/><path fill="#1a1819" d="M 328.167969 149.195312 C 328.167969 150.546875 327.078125 151.636719 325.726562 151.636719 C 324.382812 151.636719 323.292969 150.546875 323.292969 149.195312 C 323.292969 147.851562 324.382812 146.761719 325.726562 146.761719 C 327.078125 146.761719 328.167969 147.851562 328.167969 149.195312 " fill-opacity="1" fill-rule="nonzero"/><path fill="#1a1819" d="M 280.320312 74.042969 C 280.320312 75.394531 279.230469 76.484375 277.890625 76.484375 C 276.535156 76.484375 275.445312 75.394531 275.445312 74.042969 C 275.445312 72.699219 276.535156 71.609375 277.890625 71.609375 C 279.230469 71.609375 280.320312 72.699219 280.320312 74.042969 " fill-opacity="1" fill-rule="nonzero"/><path fill="#1a1819" d="M 334.214844 97.167969 C 334.214844 98.519531 333.125 99.609375 331.785156 99.609375 C 330.429688 99.609375 329.339844 98.519531 329.339844 97.167969 C 329.339844 95.816406 330.429688 94.726562 331.785156 94.726562 C 333.125 94.726562 334.214844 95.816406 334.214844 97.167969 " fill-opacity="1" fill-rule="nonzero"/><path stroke-linecap="round" transform="matrix(0.113654, 0, 0, -0.113568, -47.649441, 447.354235)" fill="none" stroke-linejoin="round" d="M 1172.705208 3024.409855 C 1101.697274 3024.409855 1018.006896 2949.599039 1006.802353 2607.498635 L 1661.202676 2607.498635 L 1661.202676 2778.583233 C 1661.202676 2806.994145 1684.196048 2830.00492 1712.516735 2830.00492 L 1927.705832 2830.00492 C 1955.992149 2830.00492 1978.916782 2806.994145 1978.916782 2778.583233 L 1978.916782 2607.498635 L 2637.991393 2607.498635 C 2643.696774 2684.992322 2657.513419 2790.41538 2686.212173 2889.612803 C 2701.712937 2943.407799 2719.585215 2987.812748 2738.901022 3024.409855 Z M 1172.705208 3024.409855 " stroke="#1a1819" stroke-width="35" stroke-opacity="1" stroke-miterlimit="10"/><path stroke-linecap="round" transform="matrix(0.113654, 0, 0, -0.113568, -47.649441, 447.354235)" fill="none" stroke-linejoin="round" d="M 2962.991889 3104.999162 L 1172.705208 3104.999162 C 924.967943 3104.999162 924.967943 2663.804523 924.967943 2526.909328 L 2715.151515 2526.909328 C 2715.151515 2663.804523 2761.550698 3104.999162 2962.95752 3104.999162 Z M 2962.991889 3104.999162 " stroke="#1a1819" stroke-width="35" stroke-opacity="1" stroke-miterlimit="10"/><g clip-path="url(#23019e54ae)"><path stroke-linecap="round" transform="matrix(0.113654, 0, 0, -0.113568, -47.649441, 447.354235)" fill="none" stroke-linejoin="round" d="M 2715.185885 1146.985128 L 925.002313 1146.985128 L 924.967943 2181.988471 L 2715.151515 2181.988471 Z M 2715.185885 1146.985128 " stroke="#1a1819" stroke-width="35" stroke-opacity="1" stroke-miterlimit="10"/></g><path stroke-linecap="round" transform="matrix(0.113654, 0, 0, -0.113568, -47.649441, 447.354235)" fill="none" stroke-linejoin="round" d="M 1978.916782 2016.785551 L 1978.916782 1928.113236 C 1978.916782 1899.805511 1955.992149 1876.794736 1927.705832 1876.794736 L 1712.516735 1876.794736 C 1684.196048 1876.794736 1661.202676 1899.805511 1661.202676 1928.113236 L 1661.202676 2016.785551 L 1102.590888 2016.785551 L 1102.590888 1312.291235 L 2537.59731 1312.291235 L 2537.59731 2016.785551 Z M 1978.916782 2016.785551 " stroke="#1a1819" stroke-width="35" stroke-opacity="1" stroke-miterlimit="10"/><path stroke-linecap="round" transform="matrix(0.113654, 0, 0, -0.113568, -47.649441, 447.354235)" fill="none" stroke-linejoin="round" d="M 3210.797894 2179.615162 L 2715.185885 2526.909328 L 925.002313 2526.909328 L 1420.511212 2180.509452 L 1420.511212 2179.615162 Z M 3210.797894 2179.615162 " stroke="#1a1819" stroke-width="35" stroke-opacity="1" stroke-miterlimit="10"/><g clip-path="url(#44dd7a5bf9)"><path stroke-linecap="round" transform="matrix(0.113654, 0, 0, -0.113568, -47.649441, 447.354235)" fill="none" stroke-linejoin="round" d="M 2715.185885 1146.985128 L 3210.797894 1146.985128 L 3210.797894 2181.988471 L 2715.185885 2181.988471 Z M 2715.185885 1146.985128 " stroke="#1a1819" stroke-width="35" stroke-opacity="1" stroke-miterlimit="10"/></g><path stroke-linecap="round" transform="matrix(0.113654, 0, 0, -0.113568, -47.649441, 447.354235)" fill="none" stroke-linejoin="round" d="M 2962.991889 3104.999162 C 2761.585067 3104.999162 2715.185885 2663.804523 2715.185885 2526.909328 L 3210.797894 2180.509452 C 3210.797894 2317.404647 3234.994208 3104.999162 2962.991889 3104.999162 Z M 2962.991889 3104.999162 " stroke="#1a1819" stroke-width="35" stroke-opacity="1" stroke-miterlimit="10"/><path stroke-linecap="round" transform="matrix(0.113654, 0, 0, -0.113568, -47.649441, 447.354235)" fill="none" stroke-linejoin="round" d="M 2946.288184 2251.983878 L 1447.010301 2251.983878 L 1172.705208 2455.503694 L 2671.98309 2455.503694 Z M 2946.288184 2251.983878 " stroke="#1a1819" stroke-width="35" stroke-opacity="1" stroke-miterlimit="10"/><path stroke-linecap="round" transform="matrix(0.113654, 0, 0, -0.113568, -47.649441, 447.354235)" fill="none" stroke-linejoin="round" d="M 1420.511212 2455.503694 L 1420.511212 2271.589471 L 1447.010301 2251.983878 L 2946.288184 2251.983878 L 2671.98309 2455.503694 Z M 1420.511212 2455.503694 " stroke="#1a1819" stroke-width="35" stroke-opacity="1" stroke-miterlimit="10"/><path stroke-linecap="round" transform="matrix(0.113654, 0, 0, -0.113568, -47.649441, 447.354235)" fill="none" stroke-linejoin="round" d="M 1420.511212 2455.503694 L 1172.705208 2455.503694 L 1420.511212 2271.589471 Z M 1420.511212 2455.503694 " stroke="#1a1819" stroke-width="35" stroke-opacity="1" stroke-miterlimit="10"/><path stroke-linecap="round" transform="matrix(0.113654, 0, 0, -0.113568, -47.649441, 447.354235)" fill="none" stroke-linejoin="round" d="M 2857.511081 1312.291235 L 3068.403958 1312.291235 L 3068.403958 2016.785551 L 2857.511081 2016.785551 Z M 2857.511081 1312.291235 " stroke="#1a1819" stroke-width="35" stroke-opacity="1" stroke-miterlimit="10"/><path stroke-linecap="round" transform="matrix(0.113654, 0, 0, -0.113568, -47.649441, 447.354235)" fill="none" stroke-linejoin="round" d="M 2796.710967 2568.287449 C 2805.303408 2765.616025 2872.496298 3024.409855 2962.991889 3024.409855 C 2973.302819 3024.409855 2987.394422 3022.105338 3005.094851 3004.288325 C 3034.687219 2974.398394 3088.304052 2886.517183 3115.009359 2632.917115 C 3126.110793 2527.184494 3129.616509 2420.110439 3130.510123 2334.912098 Z M 2796.710967 2568.287449 " stroke="#1a1819" stroke-width="35" stroke-opacity="1" stroke-miterlimit="10"/><path stroke-linecap="round" transform="matrix(0.113654, 0, 0, -0.113568, -47.649441, 447.354235)" fill="none" stroke-linejoin="round" d="M 1102.590888 1876.794736 L 2537.59731 1876.794736 " stroke="#1a1819" stroke-width="35" stroke-opacity="1" stroke-miterlimit="10"/><path stroke-linecap="round" transform="matrix(0.113654, 0, 0, -0.113568, -47.649441, 447.354235)" fill="none" stroke-linejoin="round" d="M 1102.590888 1664.503997 L 2537.59731 1664.503997 " stroke="#1a1819" stroke-width="35" stroke-opacity="1" stroke-miterlimit="10"/><path stroke-linecap="round" transform="matrix(0.113654, 0, 0, -0.113568, -47.649441, 447.354235)" fill="none" stroke-linejoin="round" d="M 1102.590888 1452.213258 L 2537.59731 1452.213258 " stroke="#1a1819" stroke-width="35" stroke-opacity="1" stroke-miterlimit="10"/><path stroke-linecap="round" transform="matrix(0.113654, 0, 0, -0.113568, -47.649441, 447.354235)" fill="none" stroke-linejoin="round" d="M 1962.797362 2815.902651 L 2667.68687 2815.902651 " stroke="#1a1819" stroke-width="35" stroke-opacity="1" stroke-miterlimit="10"/><path stroke-linecap="round" transform="matrix(0.113654, 0, 0, -0.113568, -47.649441, 447.354235)" fill="none" stroke-linejoin="round" d="M 1027.286733 2815.902651 L 1677.287726 2815.902651 " stroke="#1a1819" stroke-width="35" stroke-opacity="1" stroke-miterlimit="10"/><path stroke-linecap="round" transform="matrix(0.113654, 0, 0, -0.113568, -47.649441, 447.354235)" fill="none" stroke-linejoin="round" d="M 2857.511081 1876.794736 L 3068.403958 1876.794736 " stroke="#1a1819" stroke-width="35" stroke-opacity="1" stroke-miterlimit="10"/><path stroke-linecap="round" transform="matrix(0.113654, 0, 0, -0.113568, -47.649441, 447.354235)" fill="none" stroke-linejoin="round" d="M 2857.511081 1664.503997 L 3068.403958 1664.503997 " stroke="#1a1819" stroke-width="35" stroke-opacity="1" stroke-miterlimit="10"/><path stroke-linecap="round" transform="matrix(0.113654, 0, 0, -0.113568, -47.649441, 447.354235)" fill="none" stroke-linejoin="round" d="M 2857.511081 1452.213258 L 3068.403958 1452.213258 " stroke="#1a1819" stroke-width="35" stroke-opacity="1" stroke-miterlimit="10"/><path stroke-linecap="round" transform="matrix(0.113654, 0, 0, -0.113568, -47.649441, 447.354235)" fill="none" stroke-linejoin="round" d="M 2830.393337 2804.1049 L 3117.79331 2603.611912 " stroke="#1a1819" stroke-width="35" stroke-opacity="1" stroke-miterlimit="10"/><path stroke-linecap="round" transform="matrix(0.113654, 0, 0, -0.113568, -47.649441, 447.354235)" fill="none" stroke-linejoin="round" d="M 1978.916782 1928.113236 C 1978.916782 1899.805511 1955.992149 1876.794736 1927.705832 1876.794736 L 1712.516735 1876.794736 C 1684.196048 1876.794736 1661.202676 1899.805511 1661.202676 1928.113236 L 1661.202676 2126.095332 C 1661.202676 2154.403057 1684.196048 2177.413832 1712.516735 2177.413832 L 1927.705832 2177.413832 C 1955.992149 2177.413832 1978.916782 2154.403057 1978.916782 2126.095332 Z M 1978.916782 1928.113236 " stroke="#1a1819" stroke-width="35" stroke-opacity="1" stroke-miterlimit="10"/><path stroke-linecap="round" transform="matrix(0.113654, 0, 0, -0.113568, -47.649441, 447.354235)" fill="none" stroke-linejoin="round" d="M 1978.916782 2580.704324 C 1978.916782 2552.396599 1955.992149 2529.385824 1927.705832 2529.385824 L 1712.516735 2529.385824 C 1684.196048 2529.385824 1661.202676 2552.396599 1661.202676 2580.704324 L 1661.202676 2778.583233 C 1661.202676 2806.994145 1684.196048 2830.00492 1712.516735 2830.00492 L 1927.705832 2830.00492 C 1955.992149 2830.00492 1978.916782 2806.994145 1978.916782 2778.583233 Z M 1978.916782 2580.704324 " stroke="#1a1819" stroke-width="35" stroke-opacity="1" stroke-miterlimit="10"/><path stroke-linecap="round" transform="matrix(0.113654, 0, 0, -0.113568, -47.649441, 447.354235)" fill="none" stroke-linejoin="round" d="M 1820.094099 2529.385824 L 1820.094099 2721.314263 " stroke="#1a1819" stroke-width="35" stroke-opacity="1" stroke-miterlimit="10"/><path stroke-linecap="round" transform="matrix(0.113654, 0, 0, -0.113568, -47.649441, 447.354235)" fill="none" stroke-linejoin="round" d="M 1820.094099 2177.413832 L 1820.094099 2027.104284 " stroke="#1a1819" stroke-width="35" stroke-opacity="1" stroke-miterlimit="10"/></svg>